<svg viewBox="0 0 100 100" xmlns="http://www.w3.org/2000/svg"><path d="M87,60.5Q75,71,66.5,84Q58,97,44.5,90Q31,83,21.5,73.5Q12,64,14,51Q16,38,21.5,24Q27,10,42.5,7Q58,4,69,14.5Q80,25,89.5,37.5Q99,50,87,60.5Z" stroke="none" stroke-width="0" fill="#f1c8ce"></path><path d="M79.5,61.5Q78,73,67.5,82Q57,91,42,90.5Q27,90,19.5,77Q12,64,16.5,51.5Q21,39,27.5,30.5Q34,22,44.5,20.5Q55,19,70.5,19.5Q86,20,83.5,35Q81,50,79.5,61.5Z" stroke="none" stroke-width="0" fill="#f0c8cd"></path><path d="M78.5,60Q73,70,65.5,82Q58,94,46,86Q34,78,28,69Q22,60,16.5,48Q11,36,19,23Q27,10,41.5,12Q56,14,68.5,19Q81,24,82.5,37Q84,50,78.5,60Z" stroke="none" stroke-width="0" fill="#efc8cc"></path><path d="M82.5,63Q81,76,69,83Q57,90,45,84.5Q33,79,24.5,70.5Q16,62,16.5,50Q17,38,24.5,28.5Q32,19,45,11.5Q58,4,66.5,16.5Q75,29,79.5,39.5Q84,50,82.5,63Z" stroke="none" stroke-width="0" fill="#eec8cb"></path><path d="M87.5,61Q76,72,66.5,80.5Q57,89,43.5,87Q30,85,21.5,74Q13,63,10,48.5Q7,34,18,23.5Q29,13,43.5,9Q58,5,72,12Q86,19,92.5,34.5Q99,50,87.5,61Z" stroke="none" stroke-width="0" fill="#edc8ca"></path><path d="M87,63.5Q82,77,69,81.5Q56,86,44.5,83Q33,80,20,73Q7,66,5,49.5Q3,33,18.5,27.5Q34,22,44.5,20.5Q55,19,66.5,23Q78,27,85,38.5Q92,50,87,63.5Z" stroke="none" stroke-width="0" fill="#ecc8c9"></path><path d="M84,62.5Q80,75,69,86Q58,97,43.5,92Q29,87,20.5,75.5Q12,64,17,52Q22,40,27.5,30.5Q33,21,44,20Q55,19,71.5,18.5Q88,18,88,34Q88,50,84,62.5Z" stroke="none" stroke-width="0" fill="#ebc8c8"></path><path d="M84,64.5Q85,79,70.5,81Q56,83,44.5,81.5Q33,80,23.5,71.5Q14,63,10,48.5Q6,34,16.5,22Q27,10,42.5,8.5Q58,7,66.5,18Q75,29,79,39.5Q83,50,84,64.5Z" stroke="none" stroke-width="0" fill="#eac8c7"></path><path d="M81,60Q74,70,65.5,78.5Q57,87,44,85.5Q31,84,21,74Q11,64,15,51.5Q19,39,24,26.5Q29,14,43.5,9.5Q58,5,71.5,12.5Q85,20,86.5,35Q88,50,81,60Z" stroke="none" stroke-width="0" fill="#e9c8c6"></path><path d="M79,60Q74,70,65,78.5Q56,87,43.5,85.5Q31,84,22,74Q13,64,13.5,50.5Q14,37,23.5,29Q33,21,44.5,17Q56,13,69.5,17.5Q83,22,83.5,36Q84,50,79,60Z" stroke="none" stroke-width="0" fill="#e8c8c5"></path><path d="M84.5,62Q79,74,69,86.5Q59,99,44,92.5Q29,86,18,75.5Q7,65,5.5,49Q4,33,15.5,22Q27,11,41,15.5Q55,20,66,23.5Q77,27,83.5,38.5Q90,50,84.5,62Z" stroke="none" stroke-width="0" fill="#e7c8c4"></path><path d="M85.5,63.5Q82,77,70,86.5Q58,96,43.5,91Q29,86,19,75.5Q9,65,13,51.5Q17,38,24.5,28Q32,18,45.5,10Q59,2,68,14.5Q77,27,83,38.5Q89,50,85.5,63.5Z" stroke="none" stroke-width="0" fill="#e6c8c3"></path><path d="M77.5,60Q73,70,65,80Q57,90,46,83.5Q35,77,23.5,70.5Q12,64,7.5,48.5Q3,33,15.5,22Q28,11,42.5,10Q57,9,69,16.5Q81,24,81.5,37Q82,50,77.5,60Z" stroke="none" stroke-width="0" fill="#e5c8c2"></path><path d="M82.5,62Q79,74,68.5,85Q58,96,43,92Q28,88,22,75.5Q16,63,15,50Q14,37,23.5,28.5Q33,20,44.5,18.5Q56,17,69.5,20Q83,23,84.5,36.5Q86,50,82.5,62Z" stroke="none" stroke-width="0" fill="#e4c8c1"></path><path d="M82.5,61Q76,72,66.5,80Q57,88,42,89Q27,90,18.5,77Q10,64,15.5,52Q21,40,25,27Q29,14,43,11.5Q57,9,66.5,18.5Q76,28,82.5,39Q89,50,82.5,61Z" stroke="none" stroke-width="0" fill="#e3c8c0"></path><path d="M83,64.5Q84,79,71,87.5Q58,96,42.5,93Q27,90,22.5,76Q18,62,14,48.5Q10,35,21.5,28Q33,21,44,20.5Q55,20,65,24.5Q75,29,78.5,39.5Q82,50,83,64.5Z" stroke="none" stroke-width="0" fill="#e2c8bf"></path><path d="M84.5,63Q82,76,70.5,87.5Q59,99,44,92.5Q29,86,20,75Q11,64,10,49.5Q9,35,21,28Q33,21,44,20.5Q55,20,67,23Q79,26,83,38Q87,50,84.5,63Z" stroke="none" stroke-width="0" fill="#e1c8be"></path><path d="M80.5,61.5Q77,73,66.5,79.5Q56,86,45.5,81Q35,76,23,70Q11,64,13.5,51Q16,38,21,23.5Q26,9,42,5.5Q58,2,73,10Q88,18,86,34Q84,50,80.5,61.5Z" stroke="none" stroke-width="0" fill="#e0c8bd"></path><path d="M90.5,64.5Q85,79,71.5,86.5Q58,94,45,88Q32,82,19.5,73.5Q7,65,12,51.5Q17,38,25,29.5Q33,21,45.5,11.5Q58,2,72.5,10.5Q87,19,91.5,34.5Q96,50,90.5,64.5Z" stroke="none" stroke-width="0" fill="#dfc8bc"></path><path d="M90.5,66Q88,82,73,87.5Q58,93,46,85.5Q34,78,24,70.5Q14,63,9,48Q4,33,17.5,25Q31,17,44,12.5Q57,8,69.5,16Q82,24,87.5,37Q93,50,90.5,66Z" stroke="none" stroke-width="0" fill="#dec8bb"></path><path d="M82,60.5Q75,71,65,75.5Q55,80,40.5,86Q26,92,16,79Q6,66,7,50.5Q8,35,20.5,28Q33,21,45,16.5Q57,12,69.5,17.5Q82,23,85.5,36.5Q89,50,82,60.5Z" stroke="none" stroke-width="0" fill="#ddc8ba"></path><path d="M93.5,65.5Q88,81,72,83Q56,85,43,84.5Q30,84,19,74.5Q8,65,14.5,52Q21,39,26.5,29Q32,19,44,17Q56,15,67.5,20.5Q79,26,89,38Q99,50,93.5,65.5Z" stroke="none" stroke-width="0" fill="#dcc8b9"></path><path d="M85,62Q79,74,68.5,84Q58,94,45,87.5Q32,81,25,71.5Q18,62,17.5,50Q17,38,25.5,30Q34,22,45.5,17Q57,12,72,15.5Q87,19,89,34.5Q91,50,85,62Z" stroke="none" stroke-width="0" fill="#dbc8b8"></path><path d="M86.5,66Q88,82,72,83.5Q56,85,44,83Q32,81,22,72.5Q12,64,10,49.5Q8,35,18,23Q28,11,43.5,6Q59,1,67,15Q75,29,80,39.5Q85,50,86.5,66Z" stroke="none" stroke-width="0" fill="#dac8b7"></path><path d="M87.5,63Q81,76,68.5,81Q56,86,42.5,86Q29,86,24,73.5Q19,61,20.5,50.5Q22,40,27.5,30.5Q33,21,44.5,18.5Q56,16,70.5,18.5Q85,21,89.5,35.5Q94,50,87.5,63Z" stroke="none" stroke-width="0" fill="#d9c8b6"></path><path d="M89,62.5Q79,75,69,86.5Q59,98,43.5,93Q28,88,19.5,76Q11,64,15.5,51.5Q20,39,26.5,30Q33,21,45,15.5Q57,10,70,16Q83,22,91,36Q99,50,89,62.5Z" stroke="none" stroke-width="0" fill="#d8c8b5"></path><path d="M84,61Q76,72,66.5,79.5Q57,87,46,81.5Q35,76,23.5,70Q12,64,11,50Q10,36,22,29Q34,22,45.5,16Q57,10,69.5,16.5Q82,23,87,36.5Q92,50,84,61Z" stroke="none" stroke-width="0" fill="#d7c8b4"></path><path d="M82.5,60Q74,70,64.5,75.5Q55,81,40.5,86.5Q26,92,19,78Q12,64,7.5,48.5Q3,33,16.5,24Q30,15,43,16.5Q56,18,67.5,22Q79,26,85,38Q91,50,82.5,60Z" stroke="none" stroke-width="0" fill="#d6c8b3"></path><path d="M92.5,65.5Q87,81,72.5,87.5Q58,94,42,92.5Q26,91,19.5,77Q13,63,11,49Q9,35,21.5,28.5Q34,22,45,18.5Q56,15,70.5,18Q85,21,91.5,35.5Q98,50,92.5,65.5Z" stroke="none" stroke-width="0" fill="#d5c8b2"></path><path d="M90,65.5Q87,81,72,84.5Q57,88,44.5,85Q32,82,20,73.5Q8,65,13.5,52Q19,39,23.5,25Q28,11,42.5,12Q57,13,72.5,15.5Q88,18,90.5,34Q93,50,90,65.5Z" stroke="none" stroke-width="0" fill="#d4c8b1"></path><path d="M80.5,62.5Q80,75,68.5,81.5Q57,88,44.5,84.5Q32,81,20,73Q8,65,7,49.5Q6,34,15.5,20.5Q25,7,41.5,7Q58,7,71,14.5Q84,22,82.5,36Q81,50,80.5,62.5Z" stroke="none" stroke-width="0" fill="#d3c8b0"></path><path d="M86.5,60.5Q75,71,65.5,78Q56,85,42.5,86Q29,87,25,73.5Q21,60,16,48Q11,36,21,26.5Q31,17,43.5,15.5Q56,14,64.5,22Q73,30,85.5,40Q98,50,86.5,60.5Z" stroke="none" stroke-width="0" fill="#d2c8af"></path><path d="M79,61.5Q77,73,67.5,85Q58,97,42.5,94Q27,91,17.5,78Q8,65,12.5,51.5Q17,38,21.5,23Q26,8,42,5Q58,2,70.5,12Q83,22,82,36Q81,50,79,61.5Z" stroke="none" stroke-width="0" fill="#d1c8ae"></path><path d="M82.5,61Q77,72,66.5,77Q56,82,44.5,81Q33,80,21.5,72.5Q10,65,11,50.5Q12,36,20.5,24.5Q29,13,43.5,8.5Q58,4,66.5,16.5Q75,29,81.5,39.5Q88,50,82.5,61Z" stroke="none" stroke-width="0" fill="#d0c8ad"></path><path d="M88,61.5Q78,73,67,79.5Q56,86,40.5,89.5Q25,93,16.5,79Q8,65,5.5,49Q3,33,17.5,25.5Q32,18,45,11.5Q58,5,66.5,17Q75,29,86.5,39.5Q98,50,88,61.5Z" stroke="none" stroke-width="0" fill="#cfc8ac"></path><path d="M81.5,62Q79,74,67.5,79.5Q56,85,45,81.5Q34,78,23,71Q12,64,15,51Q18,38,25,28Q32,18,44,16Q56,14,70,18Q84,22,84,36Q84,50,81.5,62Z" stroke="none" stroke-width="0" fill="#cec8ab"></path><path d="M84.5,65Q86,80,72,88.5Q58,97,46,87Q34,77,24,70Q14,63,17.5,51Q21,39,23,23Q25,7,41.5,6.5Q58,6,71.5,13.5Q85,21,84,35.5Q83,50,84.5,65Z" stroke="none" stroke-width="0" fill="#cdc8aa"></path><path d="M84.5,62.5Q80,75,68,78Q56,81,44.5,80Q33,79,24.5,70.5Q16,62,16,50Q16,38,24.5,29.5Q33,21,45.5,11.5Q58,2,71,12Q84,22,86.5,36Q89,50,84.5,62.5Z" stroke="none" stroke-width="0" fill="#ccc8a9"></path><path d="M87.5,64.5Q85,79,70,79.5Q55,80,42,83.5Q29,87,16,77Q3,67,8,52Q13,37,19.5,22.5Q26,8,41,12Q56,16,65.5,22.5Q75,29,82.5,39.5Q90,50,87.5,64.5Z" stroke="none" stroke-width="0" fill="#cbc8a8"></path><path d="M90,63Q81,76,69.5,85.5Q58,95,46,86.5Q34,78,20.5,72Q7,66,6,50Q5,34,20,28.5Q35,23,45.5,20.5Q56,18,68.5,21Q81,24,90,37Q99,50,90,63Z" stroke="none" stroke-width="0" fill="#cac8a7"></path><path d="M81.5,61Q76,72,67,82.5Q58,93,42.5,91Q27,89,21,76Q15,63,17.5,51Q20,39,25.5,28Q31,17,43.5,16.5Q56,16,71.5,17.5Q87,19,87,34.5Q87,50,81.5,61Z" stroke="none" stroke-width="0" fill="#c9c8a6"></path><path d="M84,62Q78,74,68,84Q58,94,42,93Q26,92,17,78.5Q8,65,7.5,49.5Q7,34,17.5,22.5Q28,11,43,7Q58,3,66,16.5Q74,30,82,40Q90,50,84,62Z" stroke="none" stroke-width="0" fill="#c8c8a5"></path><path d="M81.5,61Q76,72,66.5,81Q57,90,42.5,89.5Q28,89,17,77.5Q6,66,13,52.5Q20,39,24,25Q28,11,42.5,11.5Q57,12,66.5,20Q76,28,81.5,39Q87,50,81.5,61Z" stroke="none" stroke-width="0" fill="#c7c8a4"></path><path d="M85,63Q81,76,68.5,79Q56,82,42.5,84.5Q29,87,21.5,75Q14,63,14,50Q14,37,21.5,25.5Q29,14,43,12.5Q57,11,68,18Q79,25,84,37.5Q89,50,85,63Z" stroke="none" stroke-width="0" fill="#c6c8a3"></path><path d="M88,66Q88,82,71.5,81.5Q55,81,42,83.5Q29,86,23,74Q17,62,10.5,47.5Q4,33,16.5,23Q29,13,43.5,7.5Q58,2,66,16Q74,30,81,40Q88,50,88,66Z" stroke="none" stroke-width="0" fill="#c5c8a2"></path><path d="M89.5,63.5Q82,77,69.5,82.5Q57,88,43.5,86.5Q30,85,22,74Q14,63,17.5,51.5Q21,40,25,27Q29,14,43,11Q57,8,70,15Q83,22,90,36Q97,50,89.5,63.5Z" stroke="none" stroke-width="0" fill="#c4c8a1"></path><path d="M79.5,61.5Q78,73,67,78.5Q56,84,43.5,83.5Q31,83,18,74.5Q5,66,7,50.5Q9,35,18.5,24Q28,13,42.5,11Q57,9,70,15.5Q83,22,82,36Q81,50,79.5,61.5Z" stroke="none" stroke-width="0" fill="#c3c8a0"></path><path d="M83.5,61.5Q77,73,67,82.5Q57,92,44.5,86.5Q32,81,18.5,73.5Q5,66,5.5,50Q6,34,15.5,20.5Q25,7,41,7.5Q57,8,67,18Q77,28,83.5,39Q90,50,83.5,61.5Z" stroke="none" stroke-width="0" fill="#c2c89f"></path><path d="M79,60.5Q75,71,65.5,78Q56,85,44,82.5Q32,80,19,73Q6,66,8,51Q10,36,19.5,25Q29,14,42.5,15Q56,16,71,18Q86,20,84.5,35Q83,50,79,60.5Z" stroke="none" stroke-width="0" fill="#c1c89e"></path><path d="M87,61Q77,72,67.5,85Q58,98,44.5,90.5Q31,83,18,74.5Q5,66,12,52.5Q19,39,27,31.5Q35,24,46,16Q57,8,70.5,14.5Q84,21,90.5,35.5Q97,50,87,61Z" stroke="none" stroke-width="0" fill="#c0c89d"></path><path d="M85.5,64.5Q84,79,70.5,84Q57,89,43.5,87Q30,85,22,74Q14,63,13,49.5Q12,36,19,22.5Q26,9,40.5,14Q55,19,69,21Q83,23,85,36.5Q87,50,85.5,64.5Z" stroke="none" stroke-width="0" fill="#bfc89c"></path><path d="M89,62.5Q80,75,68.5,83.5Q57,92,45.5,85Q34,78,22,71.5Q10,65,10,50Q10,35,21.5,27.5Q33,20,45.5,12.5Q58,5,70,14Q82,23,90,36.5Q98,50,89,62.5Z" stroke="none" stroke-width="0" fill="#bec89b"></path><path d="M81.5,63Q81,76,68.5,79Q56,82,41.5,86Q27,90,21.5,76Q16,62,10.5,48Q5,34,20,28.5Q35,23,46,16Q57,9,65.5,19.5Q74,30,78,40Q82,50,81.5,63Z" stroke="none" stroke-width="0" fill="#bdc89a"></path><path d="M82.5,60Q74,70,64.5,75.5Q55,81,40.5,86.5Q26,92,19,78Q12,64,7.5,48.5Q3,33,16.5,24Q30,15,43,16.5Q56,18,67.5,22Q79,26,85,38Q91,50,82.5,60Z" stroke="none" stroke-width="0" fill="#bcc899"></path><path d="M88.5,64.5Q84,79,69.5,80Q55,81,44,80Q33,79,19.5,72.5Q6,66,12,52Q18,38,24.5,27.5Q31,17,45,9Q59,1,67,15Q75,29,84,39.5Q93,50,88.5,64.5Z" stroke="none" stroke-width="0" fill="#bbc898"></path><path d="M88.5,65Q86,80,71.5,84.5Q57,89,46,83Q35,77,19.5,72Q4,67,10.5,52.5Q17,38,23.5,27Q30,16,43.5,13.5Q57,11,72.5,15Q88,19,89.5,34.5Q91,50,88.5,65Z" stroke="none" stroke-width="0" fill="#bac897"></path><path d="M88,62.5Q80,75,69,86Q58,97,43.5,92Q29,87,24.5,74Q20,61,21,50.5Q22,40,27.5,30.5Q33,21,44.5,17.5Q56,14,68.5,19Q81,24,88.5,37Q96,50,88,62.5Z" stroke="none" stroke-width="0" fill="#b9c896"></path><path d="M81,60.5Q76,71,67.5,85Q59,99,46,89Q33,79,23,71.5Q13,64,15,51Q17,38,22,24Q27,10,42,10.5Q57,11,66,20Q75,29,80.5,39.5Q86,50,81,60.5Z" stroke="none" stroke-width="0" fill="#b8c895"></path><path d="M89,65Q86,80,72,87Q58,94,43.5,90Q29,86,20,75Q11,64,12.5,50.5Q14,37,23.5,29Q33,21,45.5,12Q58,3,65.5,17Q73,31,82.5,40.5Q92,50,89,65Z" stroke="none" stroke-width="0" fill="#b7c894"></path><path d="M87,63.5Q82,77,69.5,82Q57,87,45,83.5Q33,80,21.5,72Q10,64,8,49Q6,34,16.5,22Q27,10,42,9Q57,8,70,15Q83,22,87.5,36Q92,50,87,63.5Z" stroke="none" stroke-width="0" fill="#b6c893"></path><path d="M88.5,64.5Q85,79,70.5,82Q56,85,45,81.5Q34,78,19,72.5Q4,67,4,50Q4,33,18.5,27Q33,21,46,11Q59,1,72,10.5Q85,20,88.5,35Q92,50,88.5,64.5Z" stroke="none" stroke-width="0" fill="#b5c892"></path><path d="M80.5,61.5Q78,73,67.5,81Q57,89,45,84.5Q33,80,20.5,72.5Q8,65,10.5,51Q13,37,20.5,24.5Q28,12,43,9.5Q58,7,66.5,18Q75,29,79,39.5Q83,50,80.5,61.5Z" stroke="none" stroke-width="0" fill="#b4c891"></path><path d="M82.5,64.5Q84,79,70,82.5Q56,86,42.5,86.5Q29,87,22.5,74.5Q16,62,18.5,51Q21,40,27.5,31Q34,22,45.5,16Q57,10,65,20Q73,30,77,40Q81,50,82.5,64.5Z" stroke="none" stroke-width="0" fill="#b3c890"></path><path d="M86,63.5Q83,77,70.5,85.5Q58,94,46,85.5Q34,77,23,70.5Q12,64,10.5,49.5Q9,35,21.5,29Q34,23,46,14.5Q58,6,70.5,14Q83,22,86,36Q89,50,86,63.5Z" stroke="none" stroke-width="0" fill="#b2c88f"></path><path d="M82,61.5Q78,73,68.5,86Q59,99,45.5,90.5Q32,82,26.5,71.5Q21,61,19.5,49.5Q18,38,26,29.5Q34,21,45.5,15.5Q57,10,66.5,19Q76,28,81,39Q86,50,82,61.5Z" stroke="none" stroke-width="0" fill="#b1c88e"></path><path d="M87,60.5Q75,71,66.5,82Q58,93,45,87.5Q32,82,17.5,74.5Q3,67,4.5,50.5Q6,34,20,28Q34,22,46,14.5Q58,7,68,17Q78,27,88.5,38.5Q99,50,87,60.5Z" stroke="none" stroke-width="0" fill="#b0c88d"></path><path d="M83.5,62.5Q80,75,68.5,82.5Q57,90,44.5,85.5Q32,81,23,72Q14,63,16.5,51Q19,39,26,30Q33,21,44.5,18Q56,15,68,20Q80,25,83.5,37.5Q87,50,83.5,62.5Z" stroke="none" stroke-width="0" fill="#afc88c"></path><path d="M91.5,64.5Q84,79,71.5,89Q59,99,42.5,95.5Q26,92,17,78.5Q8,65,9.5,50.5Q11,36,21,26Q31,16,43.5,16.5Q56,17,69.5,20Q83,23,91,36.5Q99,50,91.5,64.5Z" stroke="none" stroke-width="0" fill="#aec88b"></path><path d="M87,63.5Q82,77,68.5,78.5Q55,80,40,86.5Q25,93,19,78.5Q13,64,13.5,50.5Q14,37,21,24.5Q28,12,42,14Q56,16,66,22Q76,28,84,39Q92,50,87,63.5Z" stroke="none" stroke-width="0" fill="#adc88a"></path><path d="M86,65.5Q87,81,72.5,89.5Q58,98,45,89.5Q32,81,20,73Q8,65,5.5,49Q3,33,16.5,24.5Q30,16,44,9.5Q58,3,73,10.5Q88,18,86.5,34Q85,50,86,65.5Z" stroke="none" stroke-width="0" fill="#acc889"></path><path d="M82.5,61Q76,72,66.5,80Q57,88,42,89Q27,90,18.5,77Q10,64,15.5,52Q21,40,25,27Q29,14,43,11.5Q57,9,66.5,18.5Q76,28,82.5,39Q89,50,82.5,61Z" stroke="none" stroke-width="0" fill="#abc888"></path><path d="M77,60Q74,70,66.5,84.5Q59,99,42.5,95.5Q26,92,15,79.5Q4,67,9.5,52Q15,37,24.5,30Q34,23,45.5,17.5Q57,12,68,19Q79,26,79.5,38Q80,50,77,60Z" stroke="none" stroke-width="0" fill="#aac887"></path><path d="M84,61Q77,72,66.5,79.5Q56,87,42,87.5Q28,88,23.5,74.5Q19,61,15.5,48.5Q12,36,21.5,27Q31,18,44.5,11Q58,4,67,16Q76,28,83.5,39Q91,50,84,61Z" stroke="none" stroke-width="0" fill="#a9c886"></path><path d="M80.5,60Q73,70,65.5,81.5Q58,93,43,90.5Q28,88,19,76Q10,64,13.5,51Q17,38,23.5,26.5Q30,15,44,10.5Q58,6,73,12Q88,18,88,34Q88,50,80.5,60Z" stroke="none" stroke-width="0" fill="#a8c885"></path><path d="M89.5,62Q79,74,68,81Q57,88,42.5,88Q28,88,20,76Q12,64,10,49.5Q8,35,20,26.5Q32,18,44.5,13.5Q57,9,67.5,17.5Q78,26,89,38Q100,50,89.5,62Z" stroke="none" stroke-width="0" fill="#a7c884"></path><path d="M86,63Q81,76,69,83.5Q57,91,44.5,86.5Q32,82,21.5,73Q11,64,15,51.5Q19,39,26.5,31Q34,23,45.5,16Q57,9,72,14Q87,19,89,34.5Q91,50,86,63Z" stroke="none" stroke-width="0" fill="#a6c883"></path><path d="M86.5,61Q77,72,67,81Q57,90,41,91.5Q25,93,22,77Q19,61,18.5,49.5Q18,38,25.5,29.5Q33,21,45,15Q57,9,68.5,17Q80,25,88,37.5Q96,50,86.5,61Z" stroke="none" stroke-width="0" fill="#a5c882"></path><path d="M83,64Q84,78,69.5,79Q55,80,44,79.5Q33,79,25,70.5Q17,62,14,49Q11,36,18,21.5Q25,7,40.5,10.5Q56,14,65.5,21.5Q75,29,78.5,39.5Q82,50,83,64Z" stroke="none" stroke-width="0" fill="#a4c881"></path><path d="M81,62.5Q80,75,68,79Q56,83,44.5,81.5Q33,80,25,71Q17,62,17,50Q17,38,22,24.5Q27,11,42,12Q57,13,68,19Q79,25,80.5,37.5Q82,50,81,62.5Z" stroke="none" stroke-width="0" fill="#a3c880"></path><path d="M89,63.5Q83,77,70.5,85Q58,93,44.5,87.5Q31,82,19,74Q7,66,12.5,52Q18,38,25,28Q32,18,44.5,14.5Q57,11,67.5,19Q78,27,86.5,38.5Q95,50,89,63.5Z" stroke="none" stroke-width="0" fill="#a2c87f"></path><path d="M86,63Q81,76,69,83Q57,90,42,89.5Q27,89,23.5,75Q20,61,16.5,49Q13,37,22.5,28Q32,19,45,12.5Q58,6,68.5,16Q79,26,85,38Q91,50,86,63Z" stroke="none" stroke-width="0" fill="#a1c87e"></path><path d="M79,59.5Q73,69,64,74.5Q55,80,40.5,85.5Q26,91,16,78.5Q6,66,6.5,50Q7,34,19,26Q31,18,43,19Q55,20,70.5,20Q86,20,85.5,35Q85,50,79,59.5Z" stroke="none" stroke-width="0" fill="#a0c87d"></path><path d="M85.5,60.5Q75,71,66.5,84Q58,97,45.5,88Q33,79,19,73Q5,67,7.5,51Q10,35,20.5,26.5Q31,18,44.5,11.5Q58,5,66.5,17Q75,29,85.5,39.5Q96,50,85.5,60.5Z" stroke="none" stroke-width="0" fill="#9fc87c"></path><path d="M85,61.5Q77,73,68,86Q59,99,45,91Q31,83,26,72Q21,61,19.5,49.5Q18,38,24,27Q30,16,43.5,13.5Q57,11,72,15Q87,19,90,34.5Q93,50,85,61.5Z" stroke="none" stroke-width="0" fill="#9ec87b"></path><path d="M87.5,62Q78,74,68,86Q58,98,46,88Q34,78,24,70.5Q14,63,15.5,50.5Q17,38,23,25.5Q29,13,43,12.5Q57,12,65.5,21Q74,30,85.5,40Q97,50,87.5,62Z" stroke="none" stroke-width="0" fill="#9dc87a"></path><path d="M83.5,62Q79,74,68.5,85.5Q58,97,43.5,92Q29,87,25,73.5Q21,60,17,48.5Q13,37,20,24Q27,11,42.5,7.5Q58,4,70.5,13Q83,22,85.5,36Q88,50,83.5,62Z" stroke="none" stroke-width="0" fill="#9cc879"></path><path d="M84,63.5Q82,77,70,85Q58,93,42.5,92Q27,91,22.5,76.5Q18,62,18,50Q18,38,23.5,25.5Q29,13,42,16Q55,19,65.5,23.5Q76,28,81,39Q86,50,84,63.5Z" stroke="none" stroke-width="0" fill="#9bc878"></path><path d="M88.5,64Q83,78,70,82.5Q57,87,42,88.5Q27,90,16.5,78Q6,66,7.5,50.5Q9,35,20,26.5Q31,18,44.5,12Q58,6,67,17Q76,28,85,39Q94,50,88.5,64Z" stroke="none" stroke-width="0" fill="#9ac877"></path><path d="M79,60.5Q75,71,65,75.5Q55,80,43,81.5Q31,83,26,72Q21,61,21,50Q21,39,26,28Q31,17,45,9Q59,1,69.5,13Q80,25,81.5,37.5Q83,50,79,60.5Z" stroke="none" stroke-width="0" fill="#99c876"></path><path d="M92,66Q88,82,72,82Q56,82,44,82Q32,82,20.5,73.5Q9,65,8.5,50Q8,35,18.5,24Q29,13,43,13Q57,13,66.5,20.5Q76,28,86,39Q96,50,92,66Z" stroke="none" stroke-width="0" fill="#98c875"></path><path d="M85.5,62.5Q80,75,69,86Q58,97,42.5,94Q27,91,17,78.5Q7,66,5,49.5Q3,33,16,23Q29,13,43.5,8.5Q58,4,72,12Q86,20,88.5,35Q91,50,85.5,62.5Z" stroke="none" stroke-width="0" fill="#97c874"></path><path d="M87.5,62.5Q80,75,68,80.5Q56,86,40.5,89.5Q25,93,19,78.5Q13,64,14.5,51Q16,38,22,25Q28,12,43,7Q58,2,72.5,10.5Q87,19,91,34.5Q95,50,87.5,62.5Z" stroke="none" stroke-width="0" fill="#96c873"></path></svg>