<svg width="172" height="172" viewBox="0 0 172 172" fill="none" xmlns="http://www.w3.org/2000/svg">
<rect width="172" height="172" rx="86" fill="white" fill-opacity="0.1"/>
<path d="M77.9821 163.772L79.6761 147.114L80.6653 147.215L78.9713 163.873L77.9821 163.772Z" fill="white" fill-opacity="0.5"/>
<path d="M57.8705 144.019L52.9292 152.921L49.9212 151.252C49.2257 150.866 48.7207 150.43 48.4063 149.945C48.0903 149.462 47.9393 148.956 47.9533 148.425C47.9672 147.895 48.1198 147.367 48.4109 146.842C48.7021 146.318 49.0674 145.912 49.5071 145.626C49.9467 145.339 50.4526 145.203 51.0246 145.217C51.5951 145.234 52.2252 145.434 52.9149 145.817L55.3491 147.168L54.8087 148.142L52.4092 146.81C51.9339 146.546 51.5128 146.403 51.1458 146.382C50.7759 146.358 50.455 146.438 50.183 146.621C49.9066 146.805 49.6694 147.075 49.4716 147.431C49.2737 147.788 49.1675 148.136 49.1528 148.477C49.1381 148.817 49.2369 149.141 49.4492 149.449C49.6598 149.759 50.0057 150.048 50.4867 150.315L52.382 151.367L56.7925 143.42L57.8705 144.019ZM51.4604 145.692L51.4892 140.477L52.7411 141.172L52.6775 146.368L51.4604 145.692Z" fill="white" fill-opacity="0.5"/>
<path d="M37.6171 135.821C38.3166 135.006 39.0682 134.428 39.8719 134.087C40.6757 133.746 41.4722 133.635 42.2616 133.754C43.0509 133.872 43.7751 134.214 44.4339 134.78C45.0928 135.346 45.5406 136.01 45.7773 136.772C46.014 137.534 46.0247 138.338 45.8094 139.184C45.5941 140.031 45.1368 140.861 44.4373 141.676C43.7378 142.491 42.9862 143.068 42.1825 143.409C41.3787 143.75 40.5822 143.861 39.7928 143.743C39.0034 143.624 38.2793 143.282 37.6204 142.717C36.9615 142.151 36.5138 141.487 36.2771 140.725C36.0404 139.962 36.0297 139.158 36.245 138.312C36.4602 137.466 36.9176 136.636 37.6171 135.821ZM38.5224 136.598C37.9482 137.267 37.5754 137.928 37.4041 138.58C37.2304 139.23 37.2319 139.836 37.4087 140.399C37.583 140.959 37.904 141.44 38.3717 141.842C38.8395 142.243 39.3647 142.489 39.9474 142.578C40.5275 142.666 41.1271 142.575 41.746 142.307C42.3624 142.037 42.9577 141.568 43.5319 140.899C44.1062 140.23 44.4802 139.57 44.654 138.92C44.8253 138.268 44.8238 137.661 44.6495 137.101C44.4727 136.539 44.1504 136.057 43.6826 135.655C43.2149 135.254 42.6909 135.009 42.1108 134.922C41.5281 134.832 40.9286 134.922 40.3122 135.193C39.6933 135.461 39.0967 135.929 38.5224 136.598Z" fill="white" fill-opacity="0.5"/>
<path d="M37.3391 127.844L29.2875 134.077L28.5328 133.102L35.7194 127.539L32.8224 123.796L33.6873 123.127L37.3391 127.844Z" fill="white" fill-opacity="0.5"/>
<path d="M29.8452 116.811L20.7039 121.295L17.9978 115.778L18.9797 115.297L21.1429 119.707L24.2317 118.192L22.2086 114.067L23.1906 113.586L25.2136 117.71L28.3202 116.186L26.122 111.705L27.104 111.223L29.8452 116.811Z" fill="white" fill-opacity="0.5"/>
<path d="M22.3823 92.4457L22.4478 93.7367L12.0897 90.5185L12.0252 89.2474L22.0046 84.9979L22.07 86.2889L13.6641 89.7617L13.6682 89.8411L22.3823 92.4457ZM18.3859 92.1705L18.1221 86.967L19.2144 86.9116L19.4783 92.1151L18.3859 92.1705Z" fill="white" fill-opacity="0.5"/>
<path d="M25.2234 66.176L15.6754 62.6398L16.8702 59.4136C17.1476 58.6646 17.5096 58.1024 17.9561 57.727C18.4007 57.3473 18.894 57.1271 19.4361 57.0663C19.9781 57.0055 20.5305 57.0793 21.093 57.2877C21.6556 57.496 22.1243 57.8004 22.4991 58.2007C22.8751 58.598 23.1117 59.085 23.2091 59.6619C23.3034 60.2376 23.213 60.8968 22.9379 61.6396L22.0815 63.9521L21.0558 63.5722L21.8984 61.2971C22.0883 60.7842 22.1523 60.3396 22.0902 59.9632C22.0282 59.5868 21.8723 59.2728 21.6226 59.0213C21.371 58.7655 21.054 58.5668 20.6717 58.4252C20.2894 58.2836 19.9211 58.2285 19.5666 58.2598C19.2133 58.288 18.8931 58.4274 18.6059 58.678C18.3156 58.9275 18.0743 59.3117 17.8821 59.8308L17.1292 61.8635L25.6516 65.0198L25.2234 66.176Z" fill="white" fill-opacity="0.5"/>
<path d="M30.3094 54.4726L29.6256 55.5696L22.9625 47.011L23.6357 45.9309L34.2541 48.144L33.5703 49.2409L24.6871 47.2893L24.6451 47.3568L30.3094 54.4726ZM27.1865 51.9637L29.9426 47.5421L30.8708 48.1207L28.1147 52.5423L27.1865 51.9637ZM22.1375 46.3796L20.8215 44.1299L21.5473 42.9655L22.6845 45.502L22.1375 46.3796Z" fill="white" fill-opacity="0.5"/>
<path d="M37.2715 34.1656C36.9536 34.0142 36.6368 33.9121 36.3213 33.8591C36.0057 33.8015 35.695 33.7965 35.3891 33.8441C35.0854 33.8893 34.7914 33.9893 34.507 34.1442C34.2225 34.2991 33.9536 34.5099 33.7001 34.7766C33.2845 35.2138 33.0195 35.7187 32.9051 36.2913C32.7906 36.8638 32.8528 37.4648 33.0914 38.094C33.3301 38.7233 33.7689 39.3417 34.4079 39.9491C35.0469 40.5565 35.6878 40.9622 36.3307 41.1663C36.9735 41.3704 37.5814 41.3972 38.1543 41.2467C38.7272 41.0962 39.2306 40.7928 39.6644 40.3363C40.0663 39.9135 40.3302 39.4556 40.456 38.9624C40.5817 38.4645 40.5645 37.968 40.4042 37.4727C40.2438 36.9727 39.9378 36.5081 39.4862 36.0788L39.8042 35.8597L37.6942 38.0794L36.9015 37.3258L39.5732 34.5152L40.3659 35.2688C40.9737 35.8465 41.3789 36.4786 41.5815 37.165C41.7864 37.8491 41.7967 38.5357 41.6126 39.225C41.4283 39.9095 41.0576 40.5448 40.5004 41.131C39.8793 41.7844 39.1798 42.2124 38.4019 42.415C37.6263 42.6151 36.8237 42.5839 35.9942 42.3213C35.167 42.0562 34.3642 41.5538 33.5858 40.8139C33.0021 40.259 32.5514 39.682 32.2338 39.0828C31.9161 38.479 31.7297 37.8765 31.6746 37.2754C31.6195 36.6743 31.6915 36.0934 31.8907 35.5328C32.0898 34.9721 32.4143 34.4551 32.8641 33.9819C33.2341 33.5927 33.6377 33.2859 34.0751 33.0615C34.5124 32.8324 34.9635 32.6873 35.4285 32.6263C35.8934 32.5606 36.3581 32.5793 36.8225 32.6824C37.2846 32.7833 37.7265 32.9702 38.1484 33.2431L37.2715 34.1656Z" fill="white" fill-opacity="0.5"/>
<path d="M44.5763 24.2672L50.3929 32.6241L49.3809 33.3284L43.5643 24.9715L44.5763 24.2672Z" fill="white" fill-opacity="0.5"/>
<path d="M61.4734 15.4821L65.4887 24.8387L64.3922 25.3093L56.141 20.1508L56.0496 20.19L59.2022 27.5365L58.0692 28.0227L54.0539 18.666L55.1504 18.1955L63.4278 23.3644L63.5191 23.3252L60.3587 15.9604L61.4734 15.4821Z" fill="white" fill-opacity="0.5"/>
<path d="M70.8159 23.3196L69.5497 23.5798L71.1623 12.8538L72.4089 12.5976L78.1206 21.8184L76.8545 22.0786L72.1488 14.2955L72.0709 14.3115L70.8159 23.3196ZM70.4828 19.3276L75.5864 18.2788L75.8065 19.3502L70.703 20.399L70.4828 19.3276Z" fill="white" fill-opacity="0.5"/>
<path d="M103.552 9.70812L100.181 26.1097L99.207 25.9095L102.578 9.50796L103.552 9.70812Z" fill="white" fill-opacity="0.5"/>
<path d="M121.562 31.395L127.378 23.0381L130.202 25.0035C130.855 25.4579 131.313 25.9424 131.577 26.4571C131.842 26.969 131.941 27.4882 131.874 28.0146C131.806 28.541 131.601 29.0504 131.258 29.5427C130.916 30.0351 130.511 30.4017 130.045 30.6424C129.578 30.8831 129.061 30.9675 128.494 30.8954C127.928 30.8206 127.321 30.5579 126.674 30.1073L124.389 28.5168L125.025 27.6028L127.277 29.1705C127.724 29.4811 128.128 29.6657 128.491 29.7245C128.857 29.7851 129.184 29.7384 129.473 29.5842C129.767 29.4292 130.03 29.1844 130.263 28.8498C130.496 28.5151 130.637 28.1792 130.686 27.8418C130.735 27.5044 130.669 27.1721 130.489 26.8449C130.311 26.5149 129.996 26.1928 129.545 25.8785L127.765 24.6402L122.574 32.0993L121.562 31.395ZM128.108 30.3788L127.552 35.5643L126.377 34.7463L126.966 29.5835L128.108 30.3788Z" fill="white" fill-opacity="0.5"/>
<path d="M140.882 41.5999C140.104 42.3397 139.297 42.8386 138.463 43.0964C137.629 43.3543 136.825 43.3843 136.052 43.1865C135.279 42.9887 134.593 42.5752 133.995 41.9458C133.396 41.3164 133.018 40.6105 132.86 39.8282C132.701 39.0458 132.772 38.2447 133.072 37.4247C133.372 36.6047 133.911 35.8248 134.689 35.085C135.467 34.3451 136.274 33.8462 137.108 33.5884C137.942 33.3306 138.746 33.3005 139.519 33.4983C140.292 33.6961 140.978 34.1096 141.576 34.739C142.175 35.3684 142.553 36.0743 142.711 36.8566C142.87 37.639 142.799 38.4401 142.499 39.2601C142.199 40.0801 141.66 40.86 140.882 41.5999ZM140.06 40.735C140.699 40.1276 141.137 39.5081 141.373 38.8764C141.612 38.2471 141.671 37.6438 141.552 37.0664C141.436 36.4914 141.165 35.9805 140.74 35.5337C140.316 35.0869 139.818 34.7894 139.247 34.6413C138.679 34.4956 138.073 34.5248 137.43 34.7289C136.79 34.9354 136.15 35.3424 135.511 35.9498C134.872 36.5572 134.433 37.1755 134.195 37.8048C133.958 38.4365 133.898 39.0398 134.015 39.6148C134.134 40.1922 134.406 40.7043 134.831 41.1511C135.255 41.5979 135.752 41.8942 136.32 42.0399C136.891 42.188 137.497 42.1588 138.137 41.9523C138.78 41.7482 139.421 41.3425 140.06 40.735Z" fill="white" fill-opacity="0.5"/>
<path d="M140.351 49.5637L148.992 44.1779L149.644 45.2243L141.932 50.0315L144.435 54.0481L143.507 54.6267L140.351 49.5637Z" fill="white" fill-opacity="0.5"/>
<path d="M146.691 61.2983L156.239 57.7621L158.373 63.5244L157.347 63.9043L155.641 59.2981L152.415 60.493L154.01 64.8008L152.985 65.1806L151.389 60.8728L148.144 62.0746L149.878 66.7554L148.852 67.1352L146.691 61.2983Z" fill="white" fill-opacity="0.5"/>
<path d="M151.65 86.2938L151.716 85.0028L161.695 89.2524L161.631 90.5235L151.272 93.7416L151.338 92.4507L160.052 89.8461L160.056 89.7666L151.65 86.2938ZM155.598 86.9719L155.334 92.1755L154.242 92.1201L154.506 86.9165L155.598 86.9719Z" fill="white" fill-opacity="0.5"/>
<path d="M146.166 112.141L155.307 116.625L153.792 119.714C153.441 120.431 153.024 120.954 152.541 121.282C152.061 121.615 151.548 121.784 151.002 121.79C150.457 121.795 149.915 121.666 149.376 121.402C148.837 121.138 148.402 120.788 148.07 120.351C147.736 119.918 147.55 119.41 147.511 118.826C147.475 118.244 147.632 117.597 147.981 116.886L149.067 114.672L150.049 115.153L148.98 117.332C148.74 117.823 148.631 118.258 148.655 118.639C148.678 119.02 148.802 119.348 149.025 119.624C149.249 119.904 149.544 120.133 149.91 120.313C150.276 120.492 150.637 120.584 150.993 120.589C151.347 120.597 151.68 120.491 151.991 120.27C152.305 120.051 152.584 119.694 152.828 119.197L153.782 117.251L145.623 113.248L146.166 112.141Z" fill="white" fill-opacity="0.5"/>
<path d="M139.922 123.27L140.713 122.248L146.477 131.437L145.697 132.443L135.357 129.167L136.149 128.145L144.789 130.985L144.838 130.922L139.922 123.27ZM142.775 126.082L139.586 130.202L138.721 129.533L141.91 125.412L142.775 126.082ZM147.233 132.148L148.315 134.52L147.475 135.605L146.6 132.966L147.233 132.148Z" fill="white" fill-opacity="0.5"/>
<path d="M130.941 142.769C131.242 142.951 131.547 143.085 131.856 143.17C132.164 143.259 132.472 143.295 132.782 143.279C133.088 143.265 133.391 143.195 133.69 143.07C133.988 142.944 134.277 142.762 134.556 142.522C135.014 142.129 135.329 141.654 135.5 141.096C135.672 140.537 135.671 139.933 135.497 139.283C135.324 138.633 134.95 137.973 134.375 137.304C133.801 136.636 133.205 136.167 132.586 135.899C131.967 135.631 131.365 135.543 130.779 135.634C130.194 135.726 129.663 135.977 129.185 136.387C128.742 136.767 128.434 137.196 128.258 137.674C128.083 138.157 128.05 138.653 128.159 139.162C128.268 139.675 128.526 140.168 128.932 140.641L128.593 140.827L130.917 138.832L131.629 139.662L128.687 142.188L127.974 141.358C127.428 140.722 127.089 140.052 126.957 139.348C126.822 138.647 126.881 137.963 127.134 137.296C127.387 136.634 127.82 136.039 128.434 135.512C129.118 134.925 129.857 134.57 130.651 134.447C131.443 134.326 132.238 134.439 133.037 134.784C133.833 135.131 134.581 135.712 135.281 136.527C135.805 137.138 136.195 137.758 136.451 138.386C136.706 139.019 136.83 139.637 136.824 140.241C136.818 140.845 136.688 141.415 136.433 141.953C136.178 142.49 135.803 142.972 135.308 143.397C134.9 143.747 134.467 144.011 134.01 144.19C133.551 144.374 133.088 144.473 132.619 144.486C132.15 144.505 131.69 144.439 131.238 144.29C130.788 144.142 130.368 143.912 129.976 143.598L130.941 142.769Z" fill="white" fill-opacity="0.5"/>
<path d="M122.673 151.877L117.731 142.975L118.809 142.376L123.751 151.279L122.673 151.877Z" fill="white" fill-opacity="0.5"/>
<path d="M104.973 158.908L101.925 149.193L103.064 148.836L110.751 154.802L110.846 154.773L108.452 147.145L109.629 146.776L112.677 156.491L111.538 156.848L103.826 150.868L103.731 150.898L106.131 158.545L104.973 158.908Z" fill="white" fill-opacity="0.5"/>
<path d="M96.4715 150.165L97.7575 150.035L95.0681 160.542L93.8019 160.671L89.0524 150.92L90.3384 150.789L94.2325 159.008L94.3116 159L96.4715 150.165ZM96.3991 154.17L91.2156 154.698L91.1049 153.609L96.2884 153.082L96.3991 154.17Z" fill="white" fill-opacity="0.5"/>
</svg>
